<?xml version="1.0" encoding="UTF-8" standalone="no"?>
<!DOCTYPE svg PUBLIC "-//W3C//DTD SVG 1.1//EN" "http://www.w3.org/Graphics/SVG/1.1/DTD/svg11.dtd">
<svg width="100%" height="100%" viewBox="0 0 4365 7292" version="1.1" xmlns="http://www.w3.org/2000/svg" xmlns:xlink="http://www.w3.org/1999/xlink" xml:space="preserve" xmlns:serif="http://www.serif.com/" style="fill-rule:evenodd;clip-rule:evenodd;stroke-linejoin:round;stroke-miterlimit:2;">
    <g transform="matrix(1.71741e-15,-28.0474,45.9058,2.81092e-15,-359838,143775)">
        <path d="M4912.57,7847.29L4950,7887.66L4875.14,7887.66L4912.57,7847.29Z" style="fill:#285799"/>
    </g>
    <g transform="matrix(1.71741e-15,28.0474,-45.9058,2.81092e-15,362488,-132915)">
        <path d="M4912.57,7847.29L4950,7887.66L4875.14,7887.66L4912.57,7847.29Z" style="fill:#285799"/>
    </g>
    <g transform="matrix(1.71741e-15,-28.0474,45.9058,2.81092e-15,-359838,141531)">
        <path d="M4912.57,7847.29L4950,7887.66L4875.14,7887.66L4912.57,7847.29Z" style="fill:#285799"/>
    </g>
    <g transform="matrix(1.71741e-15,-28.0474,45.9058,2.81092e-15,-357984,140408)">
        <path d="M4912.57,7847.29L4950,7887.66L4875.14,7887.66L4912.57,7847.29Z" style="fill:#285799"/>
    </g>
    <g transform="matrix(1.71741e-15,-28.0474,45.9058,2.81092e-15,-359838,139288)">
        <path d="M4912.57,7847.29L4950,7887.66L4875.14,7887.66L4912.57,7847.29Z" style="fill:#285799"/>
    </g>
    <g transform="matrix(1.71741e-15,28.0474,-45.9058,2.81092e-15,362488,-135162)">
        <path d="M4912.57,7847.29L4950,7887.66L4875.14,7887.66L4912.57,7847.29Z" style="fill:#285799"/>
    </g>
    <g transform="matrix(1.71741e-15,28.0474,-45.9058,2.81092e-15,364341,-134039)">
        <path d="M4912.57,7847.29L4950,7887.66L4875.14,7887.66L4912.57,7847.29Z" style="fill:#285799"/>
    </g>
    <g transform="matrix(1.71741e-15,28.0474,-45.9058,2.81092e-15,364341,-136282)">
        <path d="M4912.57,7847.29L4950,7887.66L4875.14,7887.66L4912.57,7847.29Z" style="fill:#285799"/>
    </g>
</svg>
